<svg width="40" height="40" viewBox="0 0 40 40" fill="none" xmlns="http://www.w3.org/2000/svg">
<path d="M3.33334 12.3333C3.33334 10.4477 3.33334 9.50492 3.91912 8.91913C4.50491 8.33334 5.44772 8.33334 7.33334 8.33334H32.6667C34.5523 8.33334 35.4951 8.33334 36.0809 8.91913C36.6667 9.50492 36.6667 10.4477 36.6667 12.3333V15.6667C36.6667 16.1381 36.6667 16.3738 36.5202 16.5202C36.3738 16.6667 36.1381 16.6667 35.6667 16.6667H4.33333C3.86193 16.6667 3.62623 16.6667 3.47978 16.5202C3.33334 16.3738 3.33334 16.1381 3.33334 15.6667V12.3333Z" fill="#222222"/>
<path fill-rule="evenodd" clip-rule="evenodd" d="M3.33334 32.6667C3.33334 34.5523 3.33334 35.4951 3.91912 36.0809C4.50491 36.6667 5.44772 36.6667 7.33334 36.6667H32.6667C34.5523 36.6667 35.4951 36.6667 36.0809 36.0809C36.6667 35.4951 36.6667 34.5523 36.6667 32.6667V21C36.6667 20.5286 36.6667 20.2929 36.5202 20.1464C36.3738 20 36.1381 20 35.6667 20H4.33333C3.86193 20 3.62623 20 3.47978 20.1464C3.33334 20.2929 3.33334 20.5286 3.33334 21V32.6667ZM11.6667 24.3333C11.6667 23.8619 11.6667 23.6262 11.8131 23.4798C11.9596 23.3333 12.1953 23.3333 12.6667 23.3333H17.3333C17.8047 23.3333 18.0404 23.3333 18.1869 23.4798C18.3333 23.6262 18.3333 23.8619 18.3333 24.3333V25.6667C18.3333 26.1381 18.3333 26.3738 18.1869 26.5202C18.0404 26.6667 17.8047 26.6667 17.3333 26.6667H12.6667C12.1953 26.6667 11.9596 26.6667 11.8131 26.5202C11.6667 26.3738 11.6667 26.1381 11.6667 25.6667V24.3333ZM11.8131 30.1464C11.6667 30.2929 11.6667 30.5286 11.6667 31V32.3333C11.6667 32.8047 11.6667 33.0404 11.8131 33.1869C11.9596 33.3333 12.1953 33.3333 12.6667 33.3333H17.3333C17.8047 33.3333 18.0404 33.3333 18.1869 33.1869C18.3333 33.0404 18.3333 32.8047 18.3333 32.3333V31C18.3333 30.5286 18.3333 30.2929 18.1869 30.1464C18.0404 30 17.8047 30 17.3333 30H12.6667C12.1953 30 11.9596 30 11.8131 30.1464ZM21.6667 24.3333C21.6667 23.8619 21.6667 23.6262 21.8131 23.4798C21.9596 23.3333 22.1953 23.3333 22.6667 23.3333H27.3333C27.8047 23.3333 28.0404 23.3333 28.1869 23.4798C28.3333 23.6262 28.3333 23.8619 28.3333 24.3333V25.6667C28.3333 26.1381 28.3333 26.3738 28.1869 26.5202C28.0404 26.6667 27.8047 26.6667 27.3333 26.6667H22.6667C22.1953 26.6667 21.9596 26.6667 21.8131 26.5202C21.6667 26.3738 21.6667 26.1381 21.6667 25.6667V24.3333ZM21.8131 30.1464C21.6667 30.2929 21.6667 30.5286 21.6667 31V32.3333C21.6667 32.8047 21.6667 33.0404 21.8131 33.1869C21.9596 33.3333 22.1953 33.3333 22.6667 33.3333H27.3333C27.8047 33.3333 28.0404 33.3333 28.1869 33.1869C28.3333 33.0404 28.3333 32.8047 28.3333 32.3333V31C28.3333 30.5286 28.3333 30.2929 28.1869 30.1464C28.0404 30 27.8047 30 27.3333 30H22.6667C22.1953 30 21.9596 30 21.8131 30.1464Z" fill="#222222"/>
<path d="M11.6667 5L11.6667 10" stroke="#222222" stroke-width="2" stroke-linecap="round"/>
<path d="M28.3333 5L28.3333 10" stroke="#222222" stroke-width="2" stroke-linecap="round"/>
</svg>
