<svg width="37" height="24" viewBox="0 0 37 24" fill="none" xmlns="http://www.w3.org/2000/svg">
<g clip-path="url(#clip0_105_910)">
<path opacity="0.4" d="M8.77245 18.4548H25.4527C27.3995 18.4548 28.7899 18.2363 29.7823 17.2438C30.7781 16.2513 30.9826 14.8858 30.9826 12.9323V10.0391C30.9826 8.08565 30.7781 6.71344 29.7823 5.7243C28.7865 4.73183 27.3995 4.51666 25.4527 4.51666H8.71101C6.83972 4.51666 5.44603 4.73516 4.45356 5.73096C3.45775 6.72343 3.25 8.09972 3.25 9.97026V12.9323C3.25 14.8858 3.45442 16.2546 4.4469 17.2438C5.44603 18.2363 6.82973 18.4548 8.77245 18.4548ZM8.48907 17.1249C7.22279 17.1249 6.08261 16.9245 5.42068 16.27C4.76949 15.6081 4.57989 14.4853 4.57989 13.2157V9.81385C4.57989 8.49278 4.76949 7.35668 5.41735 6.69475C6.07928 6.02949 7.23686 5.84322 8.5546 5.84322H25.7435C27.0098 5.84322 28.15 6.04689 28.8012 6.69808C29.4631 7.36001 29.6527 8.47537 29.6527 9.74499V13.2157C29.6527 14.4853 29.4598 15.6081 28.8012 16.27C28.15 16.9279 27.0098 17.1249 25.7435 17.1249H8.48907ZM32.2271 14.1011C33.0224 14.0507 34.0978 13.0257 34.0978 11.482C34.0978 9.94243 33.0224 8.91741 32.2271 8.86703V14.1011Z" fill="black"/>
<path d="M8.11288 16.022H26.1304C27.094 16.022 27.6669 15.8713 28.0309 15.5072C28.395 15.1398 28.5531 14.5636 28.5531 13.5993V9.36879C28.5531 8.3978 28.395 7.82825 28.0343 7.46087C27.6669 7.10015 27.0873 6.94611 26.1304 6.94611H8.18174C7.15264 6.94611 6.55903 7.09682 6.20905 7.45754C5.84832 7.82492 5.6902 8.41854 5.6902 9.43023V13.5993C5.6902 14.5736 5.84832 15.1398 6.20905 15.5072C6.57643 15.8679 7.15597 16.022 8.11288 16.022Z" fill="black"/>
</g>
<defs>
<clipPath id="clip0_105_910">
<rect width="30.8478" height="13.9548" fill="white" transform="translate(3.25 4.5)"/>
</clipPath>
</defs>
</svg>
