<svg width="28" height="24" viewBox="0 0 28 24" fill="none" xmlns="http://www.w3.org/2000/svg">
<g clip-path="url(#clip0_105_908)">
<path opacity="0.2" d="M21.7616 17.9102H23.7621C24.285 17.9102 24.6336 17.5449 24.6336 17.0054V15.2783C24.6336 14.7388 24.285 14.3818 23.7621 14.3818H21.7616C21.2386 14.3818 20.89 14.7388 20.89 15.2783V17.0054C20.89 17.5449 21.2386 17.9102 21.7616 17.9102Z" fill="black"/>
<path d="M21.7651 17.9102H23.7822C24.2969 17.9102 24.6455 17.5449 24.6455 17.0054V4.40478C24.6455 3.86523 24.2969 3.5 23.7822 3.5H21.7651C21.2505 3.5 20.8936 3.86523 20.8936 4.40478V17.0054C20.8936 17.5449 21.2505 17.9102 21.7651 17.9102Z" fill="black"/>
<path opacity="0.2" d="M15.5516 17.9102H17.5521C18.075 17.9102 18.4237 17.5449 18.4237 17.0054V15.2783C18.4237 14.7388 18.075 14.3818 17.5521 14.3818H15.5516C15.0286 14.3818 14.68 14.7388 14.68 15.2783V17.0054C14.68 17.5449 15.0286 17.9102 15.5516 17.9102Z" fill="black"/>
<path d="M15.5562 17.9102H17.5566C18.0713 17.9102 18.4282 17.5449 18.4282 17.0054V7.68359C18.4282 7.14404 18.0713 6.77881 17.5566 6.77881H15.5562C15.0332 6.77881 14.6846 7.14404 14.6846 7.68359V17.0054C14.6846 17.5449 15.0332 17.9102 15.5562 17.9102Z" fill="black"/>
<path opacity="0.2" d="M9.34158 17.9102H11.3421C11.865 17.9102 12.2137 17.5449 12.2137 17.0054V15.2783C12.2137 14.7388 11.865 14.3818 11.3421 14.3818H9.34158C8.81863 14.3818 8.47 14.7388 8.47 15.2783V17.0054C8.47 17.5449 8.81863 17.9102 9.34158 17.9102Z" fill="black"/>
<path d="M9.33887 17.9102H11.3394C11.8623 17.9102 12.2109 17.5449 12.2109 17.0054V10.6885C12.2109 10.1489 11.8623 9.78369 11.3394 9.78369H9.33887C8.81592 9.78369 8.46729 10.1489 8.46729 10.6885V17.0054C8.46729 17.5449 8.81592 17.9102 9.33887 17.9102Z" fill="black"/>
<path opacity="0.2" d="M3.12158 17.9102H5.12207C5.64502 17.9102 5.99365 17.5449 5.99365 17.0054V15.2783C5.99365 14.7388 5.64502 14.3818 5.12207 14.3818H3.12158C2.59863 14.3818 2.25 14.7388 2.25 15.2783V17.0054C2.25 17.5449 2.59863 17.9102 3.12158 17.9102Z" fill="black"/>
<path d="M3.12158 17.9102H5.12207C5.64502 17.9102 5.99365 17.5449 5.99365 17.0054V13.2783C5.99365 12.7388 5.64502 12.3818 5.12207 12.3818H3.12158C2.59863 12.3818 2.25 12.7388 2.25 13.2783V17.0054C2.25 17.5449 2.59863 17.9102 3.12158 17.9102Z" fill="black"/>
</g>
<defs>
<clipPath id="clip0_105_908">
<rect width="22.3955" height="14.4185" fill="white" transform="translate(2.25 3.5)"/>
</clipPath>
</defs>
</svg>
