<svg width="24" height="24" viewBox="0 0 24 24" fill="none" xmlns="http://www.w3.org/2000/svg">
<g clip-path="url(#clip0_105_909)">
<path d="M11.8055 18.3042C11.9881 18.3042 12.1458 18.2212 12.4695 17.9058L14.4949 15.9634C14.6194 15.8389 14.6526 15.6562 14.5364 15.5068C13.9969 14.8096 12.9759 14.2036 11.8055 14.2036C10.6019 14.2036 9.58085 14.8345 9.0413 15.5566C8.9583 15.6895 8.9915 15.8389 9.12431 15.9634L11.1414 17.9058C11.4651 18.2129 11.6229 18.3042 11.8055 18.3042ZM6.94951 13.7886C7.13212 13.9629 7.35624 13.938 7.52226 13.7554C8.51835 12.6514 10.1453 11.8462 11.8055 11.8545C13.4822 11.8462 15.1092 12.6763 16.1219 13.7803C16.2713 13.9546 16.4788 13.9463 16.6614 13.7803L17.948 12.502C18.0809 12.3691 18.0975 12.1865 17.9729 12.0371C16.7195 10.5015 14.3953 9.34766 11.8055 9.34766C9.21562 9.34766 6.8914 10.5015 5.63798 12.0371C5.51347 12.1865 5.52177 12.3525 5.66288 12.502L6.94951 13.7886ZM3.50468 10.3189C3.6707 10.4766 3.90312 10.4766 4.06083 10.3106C6.10283 8.14404 8.79228 6.99854 11.8055 6.99854C14.8352 6.99854 17.5413 8.15234 19.5667 10.3189C19.7161 10.4683 19.9402 10.46 20.1062 10.3022L21.2518 9.15674C21.4012 9.00732 21.3929 8.82471 21.2767 8.68359C19.326 6.27637 15.657 4.5083 11.8055 4.5083C7.9622 4.5083 4.27665 6.27637 2.33427 8.68359C2.21806 8.82471 2.21806 9.00732 2.35917 9.15674L3.50468 10.3189Z" fill="black"/>
</g>
<defs>
<clipPath id="clip0_105_909">
<rect width="19.1139" height="13.8042" fill="white" transform="translate(2.25 4.5)"/>
</clipPath>
</defs>
</svg>
