<svg width="40" height="40" viewBox="0 0 40 40" fill="none" xmlns="http://www.w3.org/2000/svg">
<path d="M3.33331 12.3333C3.33331 10.4477 3.33331 9.50492 3.9191 8.91913C4.50489 8.33334 5.4477 8.33334 7.33331 8.33334H32.6666C34.5523 8.33334 35.4951 8.33334 36.0809 8.91913C36.6666 9.50492 36.6666 10.4477 36.6666 12.3333V15.6667C36.6666 16.1381 36.6666 16.3738 36.5202 16.5202C36.3738 16.6667 36.1381 16.6667 35.6666 16.6667H4.33331C3.86191 16.6667 3.62621 16.6667 3.47976 16.5202C3.33331 16.3738 3.33331 16.1381 3.33331 15.6667V12.3333Z" fill="#222222"/>
<path fill-rule="evenodd" clip-rule="evenodd" d="M3.33331 32.6667C3.33331 34.5523 3.33331 35.4951 3.9191 36.0809C4.50489 36.6667 5.4477 36.6667 7.33331 36.6667H32.6666C34.5523 36.6667 35.4951 36.6667 36.0809 36.0809C36.6666 35.4951 36.6666 34.5523 36.6666 32.6667V21C36.6666 20.5286 36.6666 20.2929 36.5202 20.1464C36.3738 20 36.1381 20 35.6666 20H4.33331C3.86191 20 3.62621 20 3.47976 20.1464C3.33331 20.2929 3.33331 20.5286 3.33331 21V32.6667ZM11.6666 24.3333C11.6666 23.8619 11.6666 23.6262 11.8131 23.4798C11.9595 23.3333 12.1952 23.3333 12.6666 23.3333H17.3333C17.8047 23.3333 18.0404 23.3333 18.1869 23.4798C18.3333 23.6262 18.3333 23.8619 18.3333 24.3333V25.6667C18.3333 26.1381 18.3333 26.3738 18.1869 26.5202C18.0404 26.6667 17.8047 26.6667 17.3333 26.6667H12.6666C12.1952 26.6667 11.9595 26.6667 11.8131 26.5202C11.6666 26.3738 11.6666 26.1381 11.6666 25.6667V24.3333ZM11.8131 30.1464C11.6666 30.2929 11.6666 30.5286 11.6666 31V32.3333C11.6666 32.8047 11.6666 33.0404 11.8131 33.1869C11.9595 33.3333 12.1952 33.3333 12.6666 33.3333H17.3333C17.8047 33.3333 18.0404 33.3333 18.1869 33.1869C18.3333 33.0404 18.3333 32.8047 18.3333 32.3333V31C18.3333 30.5286 18.3333 30.2929 18.1869 30.1464C18.0404 30 17.8047 30 17.3333 30H12.6666C12.1952 30 11.9595 30 11.8131 30.1464ZM21.6666 24.3333C21.6666 23.8619 21.6666 23.6262 21.8131 23.4798C21.9595 23.3333 22.1952 23.3333 22.6666 23.3333H27.3333C27.8047 23.3333 28.0404 23.3333 28.1869 23.4798C28.3333 23.6262 28.3333 23.8619 28.3333 24.3333V25.6667C28.3333 26.1381 28.3333 26.3738 28.1869 26.5202C28.0404 26.6667 27.8047 26.6667 27.3333 26.6667H22.6666C22.1952 26.6667 21.9595 26.6667 21.8131 26.5202C21.6666 26.3738 21.6666 26.1381 21.6666 25.6667V24.3333ZM21.8131 30.1464C21.6666 30.2929 21.6666 30.5286 21.6666 31V32.3333C21.6666 32.8047 21.6666 33.0404 21.8131 33.1869C21.9595 33.3333 22.1952 33.3333 22.6666 33.3333H27.3333C27.8047 33.3333 28.0404 33.3333 28.1869 33.1869C28.3333 33.0404 28.3333 32.8047 28.3333 32.3333V31C28.3333 30.5286 28.3333 30.2929 28.1869 30.1464C28.0404 30 27.8047 30 27.3333 30H22.6666C22.1952 30 21.9595 30 21.8131 30.1464Z" fill="#222222"/>
<path d="M11.6667 5L11.6667 10" stroke="#222222" stroke-width="2" stroke-linecap="round"/>
<path d="M28.3333 5L28.3333 10" stroke="#222222" stroke-width="2" stroke-linecap="round"/>
</svg>
