<svg width="40" height="40" viewBox="0 0 40 40" fill="none" xmlns="http://www.w3.org/2000/svg">
<path fill-rule="evenodd" clip-rule="evenodd" d="M20 6.66668C16.3181 6.66668 13.3333 9.65144 13.3333 13.3333C13.3333 17.0152 16.3181 20 20 20C23.6819 20 26.6667 17.0152 26.6667 13.3333C26.6667 9.65145 23.6819 6.66668 20 6.66668ZM26.0683 21.2823C28.4583 19.455 30 16.5742 30 13.3333C30 7.8105 25.5228 3.33334 20 3.33334C14.4771 3.33334 9.99999 7.8105 9.99999 13.3333C9.99999 16.5742 11.5417 19.455 13.9317 21.2823C12.2559 22.0236 10.7142 23.0726 9.39339 24.3934C8.37351 25.4133 7.51557 26.565 6.83628 27.8085C5.58275 30.1032 6.09396 32.4429 7.50565 34.0973C8.86466 35.69 11.0417 36.6667 13.3333 36.6667H26.6667C28.9583 36.6667 31.1353 35.69 32.4943 34.0973C33.906 32.4429 34.4172 30.1032 33.1637 27.8085C32.4844 26.565 31.6265 25.4133 30.6066 24.3934C29.2858 23.0726 27.7441 22.0236 26.0683 21.2823ZM20 23.3333C16.9058 23.3333 13.9383 24.5625 11.7504 26.7504C10.9571 27.5438 10.2899 28.4395 9.76159 29.4066C9.24998 30.3431 9.41502 31.1996 10.0413 31.9337C10.7203 32.7294 11.9431 33.3333 13.3333 33.3333H26.6667C28.0569 33.3333 29.2797 32.7294 29.9587 31.9337C30.585 31.1996 30.75 30.3431 30.2384 29.4066C29.7101 28.4395 29.0429 27.5438 28.2496 26.7504C26.0616 24.5625 23.0942 23.3333 20 23.3333Z" fill="black"/>
</svg>
